PathFileType	4	(X/Y/Z)	/Users/itak/Documents/Research/Walk-IL/dataset/trc/00225_00009.trc
DataRate	CameraRate	NumFrames	NumMarkers	Units	OrigDataRate	OrigDataStartFrame	OrigNumFrames
100.000000	100.000000	4	53	mm	100.000000	113	455
Frame#	Time	RPSI			LPSI			L3			STRN			T10			C7			CLAV			RBAK			LBAK			LSHO			LUPA			LAEL			LAOL			LWTS			LWPS			LFRA			LIFD			LHPS			LHTS			RSHO			RUPA			RAEL			RAOL			RWTS			RWPS			RFRA			RIFD			RHTS			RHPS			RBHD			LFHD			RFHD			LBHD			LHIP			RHIP			RASI			LASI			LKNE			LTHI			LANK			LTIP			LTOE			LMT1			LMT5			LHEE			RKNE			RANK			RTIP			RTOE			RMT1			RMT5			RHEE			RTHI			
		X1	Y1	Z1	X2	Y2	Z2	X3	Y3	Z3	X4	Y4	Z4	X5	Y5	Z5	X6	Y6	Z6	X7	Y7	Z7	X8	Y8	Z8	X9	Y9	Z9	X10	Y10	Z10	X11	Y11	Z11	X12	Y12	Z12	X13	Y13	Z13	X14	Y14	Z14	X15	Y15	Z15	X16	Y16	Z16	X17	Y17	Z17	X18	Y18	Z18	X19	Y19	Z19	X20	Y20	Z20	X21	Y21	Z21	X22	Y22	Z22	X23	Y23	Z23	X24	Y24	Z24	X25	Y25	Z25	X26	Y26	Z26	X27	Y27	Z27	X28	Y28	Z28	X29	Y29	Z29	X30	Y30	Z30	X31	Y31	Z31	X32	Y32	Z32	X33	Y33	Z33	X34	Y34	Z34	X35	Y35	Z35	X36	Y36	Z36	X37	Y37	Z37	X38	Y38	Z38	X39	Y39	Z39	X40	Y40	Z40	X41	Y41	Z41	X42	Y42	Z42	X43	Y43	Z43	X44	Y44	Z44	X45	Y45	Z45	X46	Y46	Z46	X47	Y47	Z47	X48	Y48	Z48	X49	Y49	Z49	X50	Y50	Z50	X51	Y51	Z51	X52	Y52	Z52	X53	Y53	Z53	

114	1.13	-1120.8896484375	1052.035034179688	-206.7982482910156	-1114.255004882812	1061.47802734375	-86.48609924316406	-1114.96875	1146.154174804688	-137.8415679931641	-1369.255493164062	1312.821044921875	-115.2533569335938	-1115.017944335938	1272.297607421875	-150.3405914306641	-1194.43017578125	1529.047729492188	-141.9393463134766	-1351.091918945312	1431.925170898438	-119.9893493652344	-1119.531494140625	1395.380615234375	-224.2960968017578	-1158.949462890625	1494.010009765625	-33.31942749023438	-1241.384399414062	1488.806640625	33.96022033691406	-1196.372314453125	1371.542358398438	107.3889541625977	-1197.358642578125	1160.089111328125	134.8480682373047	-1132.020385742188	1146.508544921875	77.48578643798828	-1293.2412109375	926.380859375	89.99691772460938	-1254.936889648438	907.7828979492188	163.1698913574219	-1215.540893554688	1052.41796875	151.0538482666016	-1299.756958007812	731.5023193359375	96.06629943847656	-1272.6513671875	819.730712890625	160.3504486083984	-1324.601440429688	825.2569580078125	116.0957641601562	-1272.114013671875	1479.700927734375	-300.0209350585938	-1259.953857421875	1416.34912109375	-369.7249145507812	-1241.397827148438	1135.521606445312	-411.2510681152344	-1189.979614257812	1127.744873046875	-331.437255859375	-1371.090942382812	924.319580078125	-345.85498046875	-1329.744506835938	908.385009765625	-417.4132995605469	-1269.71337890625	1067.173706054688	-418.7232971191406	-1390.10400390625	732.1544189453125	-336.0256042480469	-1415.653930664062	804.964599609375	-353.3882141113281	-1371.741333007812	802.3685302734375	-411.1620788574219	-1259.765258789062	1677.377563476562	-195.1004486083984	-1439.724243164062	1714.104125976562	-59.97406768798828	-1460.76123046875	1709.088134765625	-157.9631195068359	-1276.53125	1687.663208007812	-56.19292831420898	-1208.428955078125	1003.970336914062	60.90135955810547	-1222.46337890625	1008.240234375	-307.8258666992188	-1318.2216796875	1051.68798828125	-267.5954284667969	-1311.111083984375	1043.142456054688	13.97873783111572	-1361.80126953125	529.1712646484375	37.95989227294922	-1322.773803710938	670.7581787109375	58.98751449584961	-1056.016723632812	144.734619140625	17.22153091430664	-1210.697021484375	351.9280395507812	36.52502059936523	-1266.12744140625	93.02448272705078	-9.420014381408691	-1204.563354492188	103.4519271850586	-60.69648742675781	-1172.305419921875	102.0904388427734	48.09050369262695	-1007.164794921875	174.4591674804688	-40.57520294189453	-1296.906616210938	517.95068359375	-255.6586151123047	-1282.9013671875	38.85877227783203	-213.0978851318359	-1315.290893554688	405.3671875	-234.1507720947266	-1495.083740234375	46.98040771484375	-167.4782104492188	-1438.338134765625	45.00931930541992	-126.476448059082	-1393.673095703125	42.70950317382812	-236.9283294677734	-1221.058715820312	40.02443695068359	-153.1028137207031	nan	nan	nan	
115	1.14	-1118.315307617188	1051.611572265625	-206.0535430908203	-1111.872680664062	1060.954956054688	-85.73152160644531	-1112.24267578125	1145.581176757812	-137.0159606933594	-1366.094604492188	1312.937255859375	-114.7739410400391	-1111.9111328125	1271.7646484375	-149.5203857421875	-1190.636962890625	1528.707641601562	-141.1648712158203	-1347.60107421875	1431.9892578125	-119.4500427246094	-1115.63037109375	1395.030639648438	-223.5203247070312	-1155.433959960938	1493.53515625	-32.52409362792969	-1237.911865234375	1488.533203125	34.69258880615234	-1193.13916015625	1371.187377929688	108.1454010009766	-1194.120239257812	1159.730834960938	135.5863952636719	-1128.859130859375	1146.224609375	78.08338928222656	-1289.003784179688	925.43701171875	91.23208618164062	-1250.470825195312	907.2402954101562	164.41259765625	-1211.8603515625	1052.033325195312	151.9347534179688	-1294.248291015625	730.4801635742188	97.70442962646484	-1267.723266601562	819.0460815429688	161.8361663818359	-1319.686889648438	824.1334838867188	117.6220550537109	-1268.219482421875	1479.59912109375	-299.3747253417969	-1256.095458984375	1416.209106445312	-369.066650390625	-1238.0625	1135.32568359375	-410.4591979980469	-1186.79296875	1127.552734375	-330.5161743164062	-1368.184936523438	924.3207397460938	-345.1776428222656	-1326.769409179688	908.3201904296875	-416.6750793457031	-1266.5126953125	1067.0322265625	-417.9558715820312	-1387.411987304688	732.1791381835938	-335.3132019042969	-1412.878784179688	805.0199584960938	-352.7212829589844	-1368.88330078125	802.3561401367188	-410.4369506835938	-1255.675903320312	1677.104858398438	-194.6603546142578	-1435.1201171875	1714.610961914062	-59.06814956665039	-1456.436889648438	1709.636840820312	-157.0364532470703	-1271.990234375	1687.522827148438	-55.71581268310547	-1206.235961914062	1003.603454589844	61.5114631652832	-1219.621337890625	1008.22802734375	-307.3661193847656	-1315.562744140625	1051.683227539062	-267.1610717773438	-1308.902587890625	1042.9150390625	14.43939685821533	-1358.444702148438	528.3727416992188	39.03973007202148	-1320.124755859375	670.1657104492188	59.69967651367188	-1042.974853515625	152.0343017578125	17.97153663635254	-1203.34228515625	354.8559265136719	37.30989456176758	-1251.442626953125	94.20307159423828	-8.851141929626465	-1190.28955078125	106.5772399902344	-59.97334671020508	-1157.979614257812	105.9855117797852	48.67462158203125	-995.0040283203125	183.1370697021484	-39.81013870239258	-1295.508422851562	517.9773559570312	-255.4517822265625	-1282.915771484375	38.85651016235352	-213.1249084472656	-1314.30078125	405.4406127929688	-234.0203857421875	-1495.138305664062	46.96203231811523	-167.4517059326172	-1438.376831054688	45.0115966796875	-126.4793930053711	-1393.706176757812	42.68689346313477	-236.9418334960938	-1221.093017578125	39.98195266723633	-153.1425323486328	nan	nan	nan	
116	1.15	-1115.690063476562	1051.173095703125	-205.2865142822266	-1109.439819335938	1060.411010742188	-84.95851898193359	-1109.500732421875	1144.968017578125	-136.1490631103516	-1362.868896484375	1313.042114257812	-114.2661514282227	-1108.7470703125	1271.191650390625	-148.6355590820312	-1186.761108398438	1528.337158203125	-140.3411712646484	-1344.035522460938	1432.038696289062	-118.8888702392578	-1111.65185546875	1394.623413085938	-222.6811828613281	-1151.8701171875	1493.031494140625	-31.6680793762207	-1234.396240234375	1488.245361328125	35.46389389038086	-1189.897583007812	1370.817993164062	108.9666213989258	-1190.893432617188	1159.357421875	136.4201202392578	-1125.68701171875	1145.915283203125	78.79370880126953	-1284.818115234375	924.514892578125	92.50852203369141	-1246.082153320312	906.69970703125	165.7227935791016	-1208.21484375	1051.6435546875	152.8933410644531	-1288.826171875	729.5040283203125	99.36212158203125	-1262.895141601562	818.3754272460938	163.3471832275391	-1314.837890625	823.0436401367188	119.1765899658203	-1264.214721679688	1479.466430664062	-298.6966857910156	-1252.123046875	1416.031127929688	-368.3719482421875	-1234.605346679688	1135.088989257812	-409.6047973632812	-1183.51513671875	1127.311401367188	-329.5135803222656	-1365.19384765625	924.2896728515625	-344.4920349121094	-1323.679809570312	908.21826171875	-415.9089965820312	-1263.19970703125	1066.851318359375	-417.1351318359375	-1384.670532226562	732.17626953125	-334.6027526855469	-1410.035766601562	805.0527954101562	-352.0726623535156	-1365.93115234375	802.3145751953125	-409.7066650390625	-1251.485107421875	1676.815063476562	-194.1972045898438	-1430.433715820312	1715.110473632812	-58.1541748046875	-1452.017944335938	1710.182861328125	-156.10791015625	-1267.356811523438	1687.368041992188	-55.2199821472168	-1204.015747070312	1003.170227050781	62.13337326049805	-1216.769165039062	1008.194885253906	-306.8654174804688	-1312.849243164062	1051.6640625	-266.6781921386719	-1306.657958984375	1042.653076171875	14.93924522399902	-1354.696411132812	527.4534912109375	40.13357925415039	-1317.166381835938	669.4769897460938	60.42530059814453	-1030.245239257812	159.0170288085938	18.96998405456543	-1195.944702148438	357.5387573242188	38.2750358581543	-1236.87744140625	95.16925811767578	-8.235617637634277	-1176.179809570312	109.5246353149414	-59.14423751831055	-1143.923461914062	109.6211013793945	49.38150024414062	-983.123291015625	191.4795227050781	-38.71817016601562	-1294.085205078125	518.0067749023438	-255.2348327636719	-1282.932861328125	38.85614395141602	-213.1519927978516	-1313.317504882812	405.5177307128906	-233.8975067138672	-1495.206787109375	46.93125534057617	-167.4095611572266	-1438.422241210938	45.01042175292969	-126.4834060668945	-1393.7412109375	42.66120529174805	-236.9610443115234	-1221.127685546875	39.94068908691406	-153.1859130859375	nan	nan	nan	
117	1.16	-1113.002563476562	1050.719604492188	-204.4942169189453	-1106.953491210938	1059.845947265625	-84.16360473632812	-1106.7373046875	1144.316040039062	-135.2449798583984	-1359.576782226562	1313.133666992188	-113.7269287109375	-1105.522094726562	1270.579833984375	-147.685546875	-1182.809448242188	1527.938720703125	-139.4715270996094	-1340.396484375	1432.071166992188	-118.3028182983398	-1107.61669921875	1394.153930664062	-221.7798004150391	-1148.2548828125	1492.499389648438	-30.75477981567383	-1230.837524414062	1487.94091796875	36.27220916748047	-1186.643676757812	1370.430786132812	109.8493804931641	-1187.67919921875	1158.970458984375	137.3391571044922	-1122.507568359375	1145.57568359375	79.60848236083984	-1280.691650390625	923.615234375	93.82769775390625	-1241.7841796875	906.1607666015625	167.0947875976562	-1204.610595703125	1051.247680664062	153.9250030517578	-1283.506225585938	728.5709838867188	101.0498428344727	-1258.164916992188	817.7200317382812	164.8797454833984	-1310.063232421875	821.98193359375	120.7566223144531	-1260.105712890625	1479.301147460938	-297.9854736328125	-1248.043212890625	1415.813354492188	-367.6385192871094	-1231.0302734375	1134.810668945312	-408.6953735351562	-1180.146240234375	1127.019287109375	-328.4451293945312	-1362.114868164062	924.229248046875	-343.7953491210938	-1320.480346679688	908.08056640625	-415.1165771484375	-1259.773803710938	1066.629638671875	-416.2643737792969	-1381.876586914062	732.1470947265625	-333.8880310058594	-1407.124877929688	805.0650634765625	-351.4356994628906	-1362.892333984375	802.2446899414062	-408.9701843261719	-1247.193359375	1676.503051757812	-193.7091827392578	-1425.66845703125	1715.601928710938	-57.23859405517578	-1447.505493164062	1710.724609375	-155.1780395507812	-1262.640625	1687.195556640625	-54.70133209228516	-1201.76220703125	1002.66845703125	62.77145385742188	-1213.880004882812	1008.140441894531	-306.3242797851562	-1310.070922851562	1051.630615234375	-266.1463012695312	-1304.369262695312	1042.35693359375	15.47945785522461	-1350.5625	526.417724609375	41.2437744140625	-1313.886962890625	668.6973876953125	61.16939926147461	-1017.866577148438	165.5614471435547	20.2170467376709	-1188.496337890625	359.9454956054688	39.41999053955078	-1222.493530273438	95.86682891845703	-7.593370914459229	-1162.270751953125	112.2251510620117	-58.24365997314453	-1130.186645507812	112.8969879150391	50.20058822631836	-971.5511474609375	199.3836364746094	-37.28259658813477	-1292.665649414062	518.0418701171875	-255.0091552734375	-1282.952026367188	38.85774230957031	-213.1798858642578	-1312.350219726562	405.5987854003906	-233.7738037109375	-1495.283447265625	46.88417816162109	-167.3631439208984	-1438.474243164062	45.006103515625	-126.488639831543	-1393.775146484375	42.63573837280273	-236.9846954345703	-1221.165161132812	39.90658950805664	-153.2330932617188	nan	nan	nan	
